<svg width="24" height="25" viewBox="0 0 24 25" fill="none" xmlns="http://www.w3.org/2000/svg">
<path d="M12 0.5C18.6276 0.5 24 5.8724 24 12.5C24 19.1276 18.6276 24.5 12 24.5C5.3724 24.5 0 19.1276 0 12.5C0 5.8724 5.3724 0.5 12 0.5ZM12 2.174C9.26137 2.174 6.63492 3.26191 4.69842 5.19842C2.76191 7.13492 1.674 9.76137 1.674 12.5C1.674 15.2386 2.76191 17.8651 4.69842 19.8016C6.63492 21.7381 9.26137 22.826 12 22.826C14.7386 22.826 17.3651 21.7381 19.3016 19.8016C21.2381 17.8651 22.326 15.2386 22.326 12.5C22.326 9.76137 21.2381 7.13492 19.3016 5.19842C17.3651 3.26191 14.7386 2.174 12 2.174ZM11.826 9.152C12.288 9.152 12.6624 9.5276 12.6624 9.9896V19.0592C12.6542 19.2757 12.5624 19.4806 12.4064 19.6309C12.2503 19.7812 12.0421 19.8651 11.8254 19.8651C11.6087 19.8651 11.4005 19.7812 11.2444 19.6309C11.0884 19.4806 10.9966 19.2757 10.9884 19.0592V9.9884C10.9884 9.5264 11.3628 9.152 11.826 9.152ZM11.8596 5.8028C12.1556 5.8028 12.4394 5.92038 12.6487 6.12967C12.858 6.33896 12.9756 6.62282 12.9756 6.9188C12.9756 7.21478 12.858 7.49864 12.6487 7.70793C12.4394 7.91722 12.1556 8.0348 11.8596 8.0348C11.5636 8.0348 11.2798 7.91722 11.0705 7.70793C10.8612 7.49864 10.7436 7.21478 10.7436 6.9188C10.7436 6.62282 10.8612 6.33896 11.0705 6.12967C11.2798 5.92038 11.5636 5.8028 11.8596 5.8028Z" fill="#06B0EE"/>
</svg>
