<?xml version="1.0" encoding="UTF-8"?>
<svg width="225px" height="33px" viewBox="0 0 225 33" version="1.1" xmlns="http://www.w3.org/2000/svg" xmlns:xlink="http://www.w3.org/1999/xlink">
    <!-- Generator: Sketch 61.2 (89653) - https://sketch.com -->
    <title>Combined Shape</title>
    <desc>Created with Sketch.</desc>
    <g id="Desktop" stroke="none" stroke-width="1" fill="none" fill-rule="evenodd">
        <g id="4---Home-" transform="translate(-201.000000, -3218.000000)" fill="#FFFFFF" fill-rule="nonzero">
            <g id="Footer" transform="translate(0.000000, 3184.000000)">
                <g id="Group-34">
                    <path d="M356.791484,34 C361.597594,34 366.588641,36.1245216 369.825041,39.4533898 L365.064038,45.0917168 C362.93275,42.5048524 359.79333,40.8855249 356.92906,40.8855249 C351.798182,40.8855249 347.907736,44.9451203 347.907736,50.2699563 C347.907736,55.6827501 351.789161,59.7897075 356.92906,59.7897075 C359.655755,59.7897075 362.79292,58.3102105 365.064038,56.0007518 L369.870148,61.0842674 C366.403704,64.6431793 361.272827,67 356.514079,67 C346.759773,67 339.504374,59.8370694 339.504374,50.3601695 C339.504374,41.0253554 346.946966,34 356.791484,34 Z M223.415733,34.2751504 L237.051463,66.6301258 L228.269204,66.6301258 L225.95749,60.6692865 L211.825588,60.6692865 L209.45749,66.6301258 L201,66.6301258 L214.958242,34.2751504 L223.415733,34.2751504 Z M323.847868,34.2751504 L337.481342,66.6301258 L328.70134,66.6301258 L326.396391,60.6692865 L312.246446,60.6692865 L309.88737,66.6301258 L301.42988,66.6301258 L315.388122,34.2751504 L323.847868,34.2751504 Z M299.914297,34.2300437 L299.914297,42.4620011 L290.157736,42.4620011 L290.157736,66.6301258 L281.941566,66.6301258 L281.941566,42.4620011 L272.272963,42.4620011 L272.272963,34.2300437 L299.914297,34.2300437 Z M266.208379,34.2300437 L266.208379,42.4620011 L256.451818,42.4620011 L256.451818,66.6301258 L248.219861,66.6301258 L248.219861,42.4620011 L238.567045,42.4620011 L238.567045,34.2300437 L266.208379,34.2300437 Z M393.174481,34.2909377 L393.174481,66.6165938 L384.949289,66.6165938 L384.949289,54.5663614 L372.899057,54.5663614 L372.899057,46.347936 L384.949289,46.347936 L384.949289,34.2909377 L393.174481,34.2909377 Z M413.449904,34.2909377 L413.449904,46.347936 L425.495626,46.347936 L425.500137,54.5663614 L413.449904,54.5663614 L413.449904,66.6165938 L405.224713,66.6165938 L405.224713,54.5663614 L395.231342,54.5663614 L395.231342,46.347936 L405.224713,46.347936 L405.224713,34.2909377 L413.449904,34.2909377 Z M218.932135,42.4574904 L214.218494,54.4287862 L223.553308,54.4287862 L218.932135,42.4574904 Z M319.36427,42.4574904 L314.650629,54.4287862 L323.985443,54.4287862 L319.36427,42.4574904 Z" id="Combined-Shape"></path>
                </g>
            </g>
        </g>
    </g>
</svg>