<svg width="33" height="32" viewBox="0 0 33 32" fill="none" xmlns="http://www.w3.org/2000/svg">
<path d="M15.8333 20.7694V9.23602L12.7266 12.3427L11.7826 11.3854L16.5 6.66669L21.2186 11.3854L20.2746 12.344L17.1666 9.23602V20.7694H15.8333ZM9.32129 25.3334C8.70707 25.3334 8.19463 25.128 7.78396 24.7174C7.37329 24.3067 7.16751 23.7938 7.16663 23.1787V19.948H8.49996V23.1787C8.49996 23.384 8.58529 23.5725 8.75596 23.744C8.92663 23.9156 9.11463 24.0009 9.31996 24H23.68C23.8844 24 24.0724 23.9147 24.244 23.744C24.4155 23.5734 24.5008 23.3849 24.5 23.1787V19.948H25.8333V23.1787C25.8333 23.7929 25.628 24.3054 25.2173 24.716C24.8066 25.1267 24.2937 25.3325 23.6786 25.3334H9.32129Z" fill="black"/>
</svg>
